<svg data-v-423bf9ae="" xmlns="http://www.w3.org/2000/svg" viewBox="0 0 338 102" class="iconLeft"><!----><!----><!----><g data-v-423bf9ae="" id="6a9508b1-b313-47ac-919e-69b19dfc2fd7" fill="black" transform="matrix(4.319654617459175,0,0,4.319654617459175,115.4899126772393,7.994064761280406)"><path d="M2.90 13.51L0.14 3.71L2.00 3.71L3.96 10.67L6.15 3.71L7.39 3.71L9.66 10.49L11.54 3.71L13.40 3.71L10.53 13.51L8.95 13.51L6.76 6.97L4.59 13.51L2.90 13.51ZM14.85 16.90L16.41 13.05L13.50 6.51L15.43 6.51L17.22 11.02L19.04 6.51L20.97 6.51L16.59 16.90L14.85 16.90ZM23.60 13.65L23.60 13.65Q22.71 13.65 22.26 13.14L22.26 13.14L22.26 13.14Q21.81 12.63 21.81 11.82L21.81 11.82L21.81 3.01L23.55 3.01L23.55 11.10L23.55 11.10Q23.55 11.66 23.61 11.89L23.61 11.89L23.61 11.89Q23.67 12.12 23.84 12.17L23.84 12.17L23.84 12.17Q24.00 12.22 24.39 12.22L24.39 12.22L24.23 13.65L23.60 13.65ZM30.14 3.01L31.88 3.01L31.88 13.51L30.24 13.51L30.21 13.06L30.21 13.06Q29.81 13.36 29.36 13.50L29.36 13.50L29.36 13.50Q28.92 13.65 28.32 13.65L28.32 13.65L28.32 13.65Q27.30 13.65 26.56 13.16L26.56 13.16L26.56 13.16Q25.83 12.67 25.45 11.84L25.45 11.84L25.45 11.84Q25.07 11.02 25.07 10.02L25.07 10.02L25.07 10.02Q25.07 9.03 25.45 8.20L25.45 8.20L25.45 8.20Q25.83 7.38 26.56 6.89L26.56 6.89L26.56 6.89Q27.30 6.40 28.32 6.40L28.32 6.40L28.32 6.40Q29.34 6.40 30.14 6.96L30.14 6.96L30.14 3.01ZM28.57 12.22L28.57 12.22Q29.40 12.22 29.81 11.63L29.81 11.63L29.81 11.63Q30.23 11.05 30.23 10.02L30.23 10.02L30.23 10.02Q30.23 9.00 29.81 8.41L29.81 8.41L29.81 8.41Q29.40 7.83 28.57 7.83L28.57 7.83L28.57 7.83Q27.76 7.83 27.31 8.43L27.31 8.43L27.31 8.43Q26.85 9.03 26.85 10.02L26.85 10.02L26.85 10.02Q26.85 11.02 27.31 11.62L27.31 11.62L27.31 11.62Q27.76 12.22 28.57 12.22L28.57 12.22ZM35.28 13.65L35.28 13.65Q34.38 13.65 33.94 13.14L33.94 13.14L33.94 13.14Q33.49 12.63 33.49 11.82L33.49 11.82L33.49 3.01L35.22 3.01L35.22 11.10L35.22 11.10Q35.22 11.66 35.29 11.89L35.29 11.89L35.29 11.89Q35.35 12.12 35.51 12.17L35.51 12.17L35.51 12.17Q35.67 12.22 36.06 12.22L36.06 12.22L35.91 13.65L35.28 13.65ZM37.17 5.45L37.17 3.71L38.91 3.71L38.91 5.45L37.17 5.45ZM37.17 13.51L37.17 6.51L38.91 6.51L38.91 13.51L37.17 13.51ZM40.95 13.51L40.95 7.94L39.96 7.94L40.11 6.51L40.95 6.51L40.95 5.03L40.95 5.03Q40.95 4.09 41.50 3.55L41.50 3.55L41.50 3.55Q42.06 3.01 43.08 3.01L43.08 3.01L43.08 3.01Q43.65 3.01 44.21 3.14L44.21 3.14L44.06 4.54L44.06 4.54Q43.82 4.47 43.51 4.47L43.51 4.47L43.51 4.47Q42.69 4.47 42.69 5.33L42.69 5.33L42.69 6.51L44.23 6.51L44.23 7.94L42.69 7.94L42.69 13.51L40.95 13.51ZM48.66 13.65L48.66 13.65Q47.45 13.65 46.59 13.15L46.59 13.15L46.59 13.15Q45.72 12.66 45.30 11.82L45.30 11.82L45.30 11.82Q44.87 10.99 44.87 9.97L44.87 9.97L44.87 9.97Q44.87 8.99 45.28 8.18L45.28 8.18L45.28 8.18Q45.68 7.36 46.45 6.88L46.45 6.88L46.45 6.88Q47.22 6.40 48.29 6.40L48.29 6.40L48.29 6.40Q49.27 6.40 49.95 6.80L49.95 6.80L49.95 6.80Q50.62 7.21 50.97 7.90L50.97 7.90L50.97 7.90Q51.31 8.58 51.31 9.44L51.31 9.44L51.31 9.44Q51.31 9.86 51.20 10.39L51.20 10.39L46.68 10.39L46.68 10.39Q46.82 11.31 47.40 11.77L47.40 11.77L47.40 11.77Q47.99 12.22 48.82 12.22L48.82 12.22L48.82 12.22Q49.95 12.22 50.92 11.65L50.92 11.65L51.00 13.12L51.00 13.12Q50.55 13.36 49.96 13.50L49.96 13.50L49.96 13.50Q49.36 13.65 48.66 13.65L48.66 13.65ZM46.72 9.21L49.55 9.21L49.55 9.21Q49.55 8.67 49.24 8.25L49.24 8.25L49.24 8.25Q48.93 7.83 48.29 7.83L48.29 7.83L48.29 7.83Q47.64 7.83 47.25 8.20L47.25 8.20L47.25 8.20Q46.86 8.58 46.72 9.21L46.72 9.21Z"></path></g><!----><g data-v-423bf9ae="" id="65a41013-8cc2-4c79-8c62-078405cc11da" transform="matrix(1.0645418802897135,0,0,1.0645418802897135,-4.356645060718314,-1.0989246100354606)" stroke="none" fill="black"><switch><g><path d="M14.1 44.5c.6.3 1.2.4 1.8.4 1.4 0 2.7-.7 3.4-2l4.1-7.7c.4-.8 1-1.4 1.8-1.9.3-.2.5-.3.8-.5l-2.4 10.8c-.8 3.5.9 6.9 4.1 8.4l-7.4 24.8v.2l4.7.6h.2c.4 0 .7-.2 1-.4l4.7-5 5-16.9 5.8 2.3c.2.1.3.2.3.4l1.6 9.7h8.9l-1.8-11.1c-.5-3.2-2.7-5.9-5.7-7.1l-6.6-2.6 3.6-12 .9 1.2c1.4 2.1 3.7 3.5 6.2 3.9l7 1.1 3 22.9 3-1.9-2.8-21.4c1-.6 1.7-1.5 1.8-2.7.3-1.9-.9-3.7-2.7-4.2l-.3-2c-.1-.9-.9-1.5-1.8-1.4-.9.1-1.5.9-1.4 1.8l.2 1.1-5.1-.8c-.4-.1-.8-.3-1.1-.7-6.5-9.5-7.8-10-9.7-10.1l-6.3-.4c-1.2-.1-2.3-.2-11.7 5.4-2 1.2-3.6 2.9-4.7 4.9l-4.1 7.7c-.8 1.9-.1 4.2 1.7 5.2z"></path><ellipse transform="rotate(-83.788 37.277 10.982)" cx="37.3" cy="11" rx="8.5" ry="8.5"></ellipse><path d="M93.8 90.2L80.9 77.7c-.2-.2-.4-.5-.6-.7l-7.9-12c-1.6-2.4-4.8-3.1-7.2-1.6l-11.4 7-15.7.1c-1.2 0-2.3.5-3.1 1.3l-7 7.3c-.9 1-2.3 1.5-3.6 1.3L15 79.1c-1.7-.2-3.4.6-4.3 2.2l-5.4 9.8c-1.5 2.8.5 6.3 3.7 6.3h81.6c1.6 0 3.2-.8 3.9-2.2 1-1.7.6-3.7-.7-5z"></path></g></switch></g><!----></svg>